<svg width="130" height="40" viewBox="0 0 130 40" fill="none" xmlns="http://www.w3.org/2000/svg">
<g clip-path="url(#clip0_304_2691)">
<path fill-rule="evenodd" clip-rule="evenodd" d="M39.9982 20C39.9982 23.9555 38.8253 27.8221 36.6278 31.1109C34.4302 34.3998 31.3068 36.9631 27.6524 38.4768C23.9981 39.9905 19.9769 40.3865 16.0975 39.6149C12.218 38.8432 8.6545 36.9385 5.85756 34.1415C3.06063 31.3446 1.1559 27.7811 0.384226 23.9016C-0.387446 20.0222 0.00860432 16.001 1.52229 12.3467C3.03598 8.69229 5.59932 5.56885 8.88817 3.37132C12.177 1.17378 16.0436 0.000850677 19.9991 0.000850677C25.3032 0.000850677 30.3901 2.1079 34.1406 5.85847C37.8912 9.60903 39.9982 14.6959 39.9982 20Z" fill="#0D6EFD"/>
<path fill-rule="evenodd" clip-rule="evenodd" d="M32.848 20.0219L33.3269 19.5421C33.3605 19.5085 33.3872 19.4687 33.4054 19.4248C33.4236 19.3809 33.433 19.3339 33.4331 19.2864C33.4331 19.2388 33.4238 19.1918 33.4057 19.1479C33.3875 19.104 33.3609 19.0641 33.3273 19.0304C33.2938 18.9968 33.2539 18.9701 33.21 18.9519C33.1661 18.9337 33.1191 18.9243 33.0716 18.9242C33.0241 18.9242 32.977 18.9335 32.9331 18.9517C32.8892 18.9698 32.8493 18.9964 32.8157 19.03L32.7761 19.0695L32.6231 17.0309L33.104 16.5488C33.1719 16.481 33.2101 16.389 33.2101 16.293C33.2102 16.1971 33.1722 16.105 33.1044 16.0371C33.0366 15.9692 32.9446 15.931 32.8486 15.9309C32.7527 15.9308 32.6606 15.9689 32.5927 16.0367L32.5508 16.0786L32.3687 13.6648C33.6893 12.4167 34.7356 11.4233 34.9723 11.1862C35.9082 10.2485 35.6131 8.82758 35.4691 8.68354C35.3251 8.5395 33.9068 8.24356 32.9708 9.18123C32.7341 9.41837 31.7425 10.4664 30.4966 11.7894L28.0862 11.6069L28.1282 11.565C28.1618 11.5314 28.1885 11.4915 28.2067 11.4476C28.225 11.4038 28.2344 11.3567 28.2344 11.3092C28.2344 11.2617 28.2251 11.2146 28.207 11.1707C28.1888 11.1268 28.1622 11.0869 28.1286 11.0533C28.0951 11.0197 28.0552 10.993 28.0113 10.9747C27.9675 10.9565 27.9204 10.9471 27.8729 10.9471C27.8254 10.947 27.7783 10.9564 27.7344 10.9745C27.6905 10.9927 27.6506 11.0193 27.617 11.0528L27.1361 11.535L25.1012 11.382L25.1408 11.3424C25.2087 11.2747 25.2469 11.1827 25.247 11.0867C25.2471 10.9907 25.209 10.8987 25.1412 10.8308C25.0734 10.7629 24.9814 10.7247 24.8855 10.7246C24.7895 10.7245 24.6975 10.7625 24.6296 10.8303L24.1507 11.3101L21.0046 11.0712L20.299 11.7781L26.0444 13.437L27.6922 14.7731C26.2173 16.5383 23.8989 19.207 23.8989 19.207L20.7814 18.8392L20.3052 19.315L22.5525 20.6994C22.4834 20.7618 22.4323 20.8415 22.4044 20.9303C22.3765 21.0191 22.373 21.1137 22.394 21.2043C21.9621 21.6371 22.1492 22.0266 22.1492 22.0266C22.1492 22.0266 22.5381 22.2141 22.9702 21.7813C23.0605 21.8023 23.1548 21.7986 23.2432 21.7707C23.3316 21.7428 23.4109 21.6917 23.4729 21.6227L24.8553 23.8739L25.3305 23.3979L24.9633 20.2747C24.9633 20.2747 27.6273 17.9524 29.3894 16.4749L30.7226 18.1255L32.3785 23.8811L33.0843 23.1743L32.848 20.0219ZM15.5301 27.3175C14.4521 28.0733 13.3542 28.7946 12.2358 29.468C11.1297 30.1402 9.98941 30.7544 8.81952 31.3082C8.24097 31.5787 7.65761 31.8262 7.07468 32.0399C6.51226 32.2503 5.93514 32.4189 5.34798 32.5446C5.08249 32.6 4.81341 32.6365 4.54277 32.6539C4.32253 32.6706 4.10108 32.6596 3.88356 32.6213C3.81253 32.6066 3.74333 32.5841 3.67723 32.5542C3.64567 32.5402 3.61876 32.5174 3.59964 32.4887C3.59868 32.4856 3.59843 32.4823 3.5989 32.4791C3.59936 32.4759 3.60054 32.4728 3.60234 32.4701C3.60414 32.4674 3.60652 32.4651 3.6093 32.4635C3.61208 32.4618 3.61521 32.4608 3.61843 32.4605C3.62515 32.4596 3.63133 32.4564 3.6359 32.4514C3.64046 32.4464 3.6431 32.4399 3.64335 32.4331C3.64882 32.3986 3.63811 32.2801 3.65581 32.1075C3.66259 32.0397 3.67373 31.9636 3.6875 31.8841C2.66449 30.3973 1.88115 28.7591 1.36607 27.0294C1.15996 27.5308 0.968056 28.0453 0.795385 28.578C0.547485 29.3267 0.371398 30.0973 0.269506 30.8793C0.21404 31.3289 0.202985 31.7828 0.236502 32.2345C0.25727 32.4949 0.299599 32.7532 0.363054 33.0067C0.43325 33.2948 0.537437 33.5736 0.673423 33.8372C0.974522 34.4286 1.45052 34.9128 2.03664 35.2241C2.30235 35.3615 2.58435 35.4648 2.87595 35.5316C3.1298 35.5866 3.38811 35.6186 3.64772 35.6271C4.09107 35.636 4.53395 35.5934 4.96745 35.5001C5.35152 35.419 5.72964 35.3118 6.0992 35.1795C6.78275 34.9319 7.44717 34.6344 8.0871 34.2894C8.71068 33.957 9.30628 33.5994 9.88418 33.2248C11.023 32.4793 12.1223 31.675 13.1776 30.8153C14.2267 29.967 15.2381 29.0818 16.2186 28.1706C18.1665 26.3494 20.0178 24.4274 21.7648 22.4126C19.7736 24.1553 17.6925 25.7925 15.5301 27.3175Z" fill="white"/>
<path fill-rule="evenodd" clip-rule="evenodd" d="M53.7464 27.1035C55.3492 27.1035 56.5878 26.7101 57.4621 25.9232C57.8868 25.5508 58.2245 25.0895 58.4511 24.572C58.6778 24.0546 58.7878 23.4936 58.7735 22.9288C58.7865 22.0479 58.4841 21.1913 57.9211 20.5136C57.3775 19.8365 56.6103 19.3754 55.7572 19.2131C56.4883 19.0167 57.1456 18.6102 57.6478 18.0438C58.1651 17.4682 58.4238 16.6996 58.4238 15.7379C58.4383 15.2023 58.333 14.6702 58.1156 14.1805C57.8981 13.6908 57.574 13.2558 57.167 12.9074C56.3291 12.1716 55.1161 11.8036 53.5278 11.8036H47.386V27.1035H53.7464ZM50.1837 14.0549H53.0688C53.8994 14.0549 54.5223 14.2407 54.9376 14.6123C55.1464 14.8043 55.3104 15.0399 55.4181 15.3025C55.5257 15.565 55.5744 15.8479 55.5605 16.1313C55.5778 16.4209 55.5298 16.7107 55.4201 16.9793C55.3104 17.2479 55.1417 17.4885 54.9266 17.6832C54.5041 18.0474 53.8994 18.2296 53.1125 18.2296H50.1837V14.0549ZM50.1837 20.3279H53.2655C54.0815 20.3279 54.7299 20.5319 55.2108 20.9399C55.4509 21.1472 55.6406 21.4066 55.7655 21.6982C55.8905 21.9897 55.9475 22.306 55.9321 22.6228C55.949 22.9288 55.8957 23.2345 55.7764 23.5167C55.657 23.7989 55.4748 24.0502 55.2436 24.2512C54.7846 24.6373 54.1398 24.8304 53.3092 24.8304H50.1837V20.3279ZM69.1774 26.6445C70.0136 26.1723 70.7051 25.4808 71.1773 24.6446C71.6787 23.7394 71.9313 22.7175 71.9095 21.683C71.9313 20.6484 71.6787 19.6266 71.1773 18.7214C70.7071 17.8873 70.0198 17.1962 69.1883 16.7215C68.3239 16.2482 67.3543 16.0002 66.3688 16.0002C65.3833 16.0002 64.4137 16.2482 63.5492 16.7215C62.7159 17.1974 62.0253 17.888 61.5493 18.7214C61.0408 19.6242 60.7841 20.647 60.8062 21.683C60.784 22.7176 61.0367 23.7395 61.5384 24.6446C62.0082 25.4789 62.6956 26.1701 63.5274 26.6445C64.3938 27.1178 65.3652 27.3658 66.3524 27.3658C67.3396 27.3658 68.311 27.1178 69.1774 26.6445ZM64.4672 24.12C63.9351 23.5736 63.6692 22.7613 63.6694 21.683C63.6697 20.6047 63.9357 19.7924 64.4672 19.2459C64.7106 18.9872 65.0044 18.7809 65.3305 18.64C65.6566 18.499 66.0081 18.4263 66.3633 18.4263C66.7186 18.4263 67.0701 18.499 67.3962 18.64C67.7222 18.7809 68.016 18.9872 68.2594 19.2459C68.7986 19.7924 69.0681 20.6047 69.0681 21.683C69.0681 22.7613 68.7986 23.5736 68.2594 24.12C68.016 24.3803 67.7215 24.5874 67.3942 24.7285C67.067 24.8695 66.7142 24.9414 66.3579 24.9397C66.003 24.9421 65.6516 24.8705 65.326 24.7293C65.0005 24.5881 64.708 24.3808 64.4672 24.12ZM82.4665 26.6445C83.3027 26.1724 83.9942 25.4809 84.4664 24.6446C84.9679 23.7395 85.2205 22.7176 85.1986 21.683C85.2205 20.6484 84.9679 19.6265 84.4664 18.7214C83.9963 17.8872 83.309 17.1961 82.4774 16.7215C81.613 16.2482 80.6433 16.0002 79.6578 16.0002C78.6723 16.0002 77.7027 16.2482 76.8383 16.7215C76.005 17.1976 75.3145 17.8881 74.8384 18.7214C74.3299 19.6242 74.0733 20.647 74.0952 21.683C74.0732 22.7176 74.3258 23.7395 74.8274 24.6446C75.2974 25.4789 75.9848 26.17 76.8164 26.6445C77.6828 27.1178 78.6542 27.3658 79.6414 27.3658C80.6287 27.3658 81.6001 27.1178 82.4665 26.6445ZM77.7563 24.12C77.2243 23.5736 76.9584 22.7613 76.9585 21.683C76.9586 20.6047 77.2246 19.7924 77.7563 19.2459C77.9997 18.9872 78.2935 18.7809 78.6195 18.64C78.9456 18.499 79.2971 18.4263 79.6524 18.4263C80.0076 18.4263 80.3591 18.499 80.6852 18.64C81.0113 18.7809 81.3051 18.9872 81.5485 19.2459C82.0876 19.7924 82.3572 20.6047 82.3572 21.683C82.3572 22.7613 82.0876 23.5736 81.5485 24.12C81.3051 24.3803 81.0105 24.5875 80.6833 24.7285C80.3561 24.8696 80.0032 24.9414 79.6469 24.9397C79.292 24.9421 78.9405 24.8705 78.6149 24.7293C78.2892 24.5882 77.9966 24.3806 77.7558 24.1198L77.7563 24.12ZM90.5317 27.1035V21.6611L94.9249 27.1035H98.4221L93.2638 21.2021L97.7008 16.2625H94.3785L90.5317 20.6557V11.3665H87.734V27.1035H90.5317ZM102.957 14.1205C103.118 13.9738 103.244 13.7945 103.329 13.5947C103.414 13.3948 103.455 13.1791 103.449 12.962C103.456 12.7465 103.415 12.5322 103.33 12.334C103.245 12.1359 103.118 11.9586 102.957 11.8146C102.603 11.5248 102.159 11.3665 101.701 11.3665C101.243 11.3665 100.799 11.5248 100.444 11.8146C100.283 11.9586 100.156 12.1359 100.071 12.334C99.9864 12.5322 99.9457 12.7465 99.9521 12.962C99.9463 13.1791 99.9873 13.3948 100.072 13.5947C100.157 13.7945 100.284 13.9738 100.444 14.1205C100.795 14.4167 101.241 14.5791 101.7 14.5791C102.16 14.5791 102.605 14.4167 102.957 14.1205H102.957ZM103.099 27.1035V16.2625H100.302V27.1035H103.099ZM108.87 27.1035V21.5081C108.87 20.5173 109.121 19.745 109.624 19.1913C109.866 18.9203 110.165 18.7055 110.499 18.5621C110.833 18.4186 111.195 18.3499 111.558 18.3607C112.36 18.3607 112.95 18.6084 113.329 19.1039C113.707 19.5993 113.897 20.3133 113.897 21.2458V27.1035H116.695V20.9836C116.695 19.3516 116.323 18.113 115.58 17.2679C114.837 16.4227 113.795 16.0002 112.454 16.0002C111.67 15.9808 110.895 16.1774 110.214 16.5685C109.595 16.9316 109.091 17.4619 108.76 18.0984L108.542 16.2625H106.072V27.1035H108.87ZM126.344 23.3441C126.975 23.0245 127.502 22.5317 127.863 21.9234C128.192 21.3424 128.371 20.6892 128.387 20.0219C128.402 19.3546 128.252 18.6939 127.951 18.0984L129.808 17.9673V16.2625H125.7C125.149 16.0836 124.573 15.995 123.995 16.0002C123.17 15.9758 122.351 16.156 121.612 16.5247C120.986 16.845 120.462 17.334 120.099 17.9365C119.736 18.539 119.548 19.231 119.558 19.9344C119.543 20.476 119.649 21.014 119.868 21.5094C120.087 22.0048 120.414 22.4449 120.825 22.7977L118.924 24.8085V25.3112C119.095 25.4809 119.282 25.6346 119.481 25.7702C119.72 25.9311 119.972 26.0701 120.235 26.1855C119.288 26.8995 118.815 27.7447 118.815 28.7209C118.79 29.2415 118.91 29.7587 119.161 30.2157C119.412 30.6726 119.783 31.0516 120.235 31.311C121.182 31.8866 122.428 32.1743 123.973 32.1743C125.109 32.1743 126.042 31.9958 126.771 31.6388C127.434 31.339 127.996 30.853 128.388 30.24C128.73 29.6925 128.911 29.0603 128.913 28.4149C128.913 27.4387 128.585 26.6737 127.929 26.12C127.273 25.5662 126.224 25.2238 124.782 25.0927C123.834 25.0053 123.15 24.9178 122.727 24.8304C122.378 24.7677 122.04 24.6574 121.722 24.5025L122.53 23.6938C123.009 23.8138 123.501 23.8725 123.995 23.8687C124.809 23.8889 125.615 23.7087 126.343 23.3441H126.344ZM122.552 21.2677C122.379 21.096 122.241 20.8917 122.148 20.6666C122.054 20.4416 122.006 20.2001 122.006 19.9563C122.006 19.7124 122.054 19.471 122.148 19.2459C122.241 19.0209 122.379 18.8166 122.552 18.6449C122.962 18.3235 123.474 18.1605 123.995 18.1859C124.504 18.1664 125.004 18.3291 125.404 18.6449C125.581 18.8148 125.721 19.0185 125.817 19.2438C125.912 19.4691 125.962 19.7115 125.962 19.9563C125.962 20.2011 125.912 20.4434 125.817 20.6688C125.721 20.8941 125.581 21.0978 125.404 21.2677C125.004 21.5835 124.504 21.7462 123.995 21.7267C123.474 21.752 122.962 21.589 122.552 21.2677H122.552ZM121.645 27.5844C121.882 27.2603 122.193 26.9979 122.552 26.8194C123.062 26.9068 123.616 26.9724 124.213 27.0161C125.058 27.0744 125.623 27.2347 125.907 27.497C126.045 27.6205 126.154 27.7723 126.228 27.9421C126.301 28.1119 126.337 28.2955 126.333 28.4805C126.336 28.7128 126.276 28.9414 126.161 29.1431C126.046 29.3447 125.879 29.5121 125.678 29.628C125.163 29.9327 124.57 30.0808 123.973 30.0542C123.333 30.0743 122.698 29.9354 122.126 29.6499C121.895 29.5432 121.701 29.3716 121.567 29.156C121.433 28.9405 121.365 28.6905 121.372 28.4368C121.376 28.1319 121.47 27.8351 121.644 27.5844H121.645Z" fill="#0B0A12"/>
</g>
<defs>
<clipPath id="clip0_304_2691">
<rect width="129.81" height="39.9983" fill="white" transform="translate(0 0.000850677)"/>
</clipPath>
</defs>
</svg>
